<svg xmlns="http://www.w3.org/2000/svg" width="260" height="120"><g data-name="about bg nöqtə qırmızı" transform="translate(-1028 -1014.75)" fill="#ffbfc4"><circle data-name="Ellipse 8" cx="4" cy="4" r="4" transform="translate(1028 1014.75)"/><circle data-name="Ellipse 8" cx="4" cy="4" r="4" transform="translate(1056 1014.75)"/><circle data-name="Ellipse 8" cx="4" cy="4" r="4" transform="translate(1084 1014.75)"/><circle data-name="Ellipse 8" cx="4" cy="4" r="4" transform="translate(1112 1014.75)"/><circle data-name="Ellipse 8" cx="4" cy="4" r="4" transform="translate(1140 1014.75)"/><circle data-name="Ellipse 8" cx="4" cy="4" r="4" transform="translate(1168 1014.75)"/><circle data-name="Ellipse 8" cx="4" cy="4" r="4" transform="translate(1196 1014.75)"/><circle data-name="Ellipse 8" cx="4" cy="4" r="4" transform="translate(1224 1014.75)"/><circle data-name="Ellipse 8" cx="4" cy="4" r="4" transform="translate(1252 1014.75)"/><circle data-name="Ellipse 8" cx="4" cy="4" r="4" transform="translate(1280 1014.75)"/><circle data-name="Ellipse 8" cx="4" cy="4" r="4" transform="translate(1028 1042.75)"/><circle data-name="Ellipse 8" cx="4" cy="4" r="4" transform="translate(1056 1042.75)"/><circle data-name="Ellipse 8" cx="4" cy="4" r="4" transform="translate(1084 1042.75)"/><circle data-name="Ellipse 8" cx="4" cy="4" r="4" transform="translate(1112 1042.75)"/><circle data-name="Ellipse 8" cx="4" cy="4" r="4" transform="translate(1140 1042.75)"/><circle data-name="Ellipse 8" cx="4" cy="4" r="4" transform="translate(1168 1042.75)"/><circle data-name="Ellipse 8" cx="4" cy="4" r="4" transform="translate(1196 1042.75)"/><circle data-name="Ellipse 8" cx="4" cy="4" r="4" transform="translate(1224 1042.75)"/><circle data-name="Ellipse 8" cx="4" cy="4" r="4" transform="translate(1252 1042.75)"/><circle data-name="Ellipse 8" cx="4" cy="4" r="4" transform="translate(1280 1042.75)"/><circle data-name="Ellipse 8" cx="4" cy="4" r="4" transform="translate(1028 1070.75)"/><circle data-name="Ellipse 8" cx="4" cy="4" r="4" transform="translate(1056 1070.75)"/><circle data-name="Ellipse 8" cx="4" cy="4" r="4" transform="translate(1084 1070.75)"/><circle data-name="Ellipse 8" cx="4" cy="4" r="4" transform="translate(1112 1070.75)"/><circle data-name="Ellipse 8" cx="4" cy="4" r="4" transform="translate(1140 1070.75)"/><circle data-name="Ellipse 8" cx="4" cy="4" r="4" transform="translate(1168 1070.75)"/><circle data-name="Ellipse 8" cx="4" cy="4" r="4" transform="translate(1196 1070.75)"/><circle data-name="Ellipse 8" cx="4" cy="4" r="4" transform="translate(1224 1070.75)"/><circle data-name="Ellipse 8" cx="4" cy="4" r="4" transform="translate(1252 1070.75)"/><circle data-name="Ellipse 8" cx="4" cy="4" r="4" transform="translate(1280 1070.75)"/><circle data-name="Ellipse 8" cx="4" cy="4" r="4" transform="translate(1028 1098.75)"/><circle data-name="Ellipse 8" cx="4" cy="4" r="4" transform="translate(1056 1098.75)"/><circle data-name="Ellipse 8" cx="4" cy="4" r="4" transform="translate(1084 1098.75)"/><circle data-name="Ellipse 8" cx="4" cy="4" r="4" transform="translate(1112 1098.75)"/><circle data-name="Ellipse 8" cx="4" cy="4" r="4" transform="translate(1140 1098.75)"/><circle data-name="Ellipse 8" cx="4" cy="4" r="4" transform="translate(1168 1098.75)"/><circle data-name="Ellipse 8" cx="4" cy="4" r="4" transform="translate(1196 1098.75)"/><circle data-name="Ellipse 8" cx="4" cy="4" r="4" transform="translate(1224 1098.75)"/><circle data-name="Ellipse 8" cx="4" cy="4" r="4" transform="translate(1252 1098.75)"/><circle data-name="Ellipse 8" cx="4" cy="4" r="4" transform="translate(1280 1098.75)"/><circle data-name="Ellipse 8" cx="4" cy="4" r="4" transform="translate(1028 1126.75)"/><circle data-name="Ellipse 8" cx="4" cy="4" r="4" transform="translate(1056 1126.75)"/><circle data-name="Ellipse 8" cx="4" cy="4" r="4" transform="translate(1084 1126.75)"/><circle data-name="Ellipse 8" cx="4" cy="4" r="4" transform="translate(1112 1126.75)"/><circle data-name="Ellipse 8" cx="4" cy="4" r="4" transform="translate(1140 1126.75)"/><circle data-name="Ellipse 8" cx="4" cy="4" r="4" transform="translate(1168 1126.75)"/><circle data-name="Ellipse 8" cx="4" cy="4" r="4" transform="translate(1196 1126.75)"/><circle data-name="Ellipse 8" cx="4" cy="4" r="4" transform="translate(1224 1126.75)"/><circle data-name="Ellipse 8" cx="4" cy="4" r="4" transform="translate(1252 1126.75)"/><circle data-name="Ellipse 8" cx="4" cy="4" r="4" transform="translate(1280 1126.75)"/></g></svg>