<svg xmlns="http://www.w3.org/2000/svg" width="260" height="120"><g data-name="about bg nöqtə mavi" transform="translate(-640 -487)" fill="#c7edff"><circle data-name="Ellipse 8" cx="4" cy="4" r="4" transform="translate(640 487)"/><circle data-name="Ellipse 8" cx="4" cy="4" r="4" transform="translate(668 487)"/><circle data-name="Ellipse 8" cx="4" cy="4" r="4" transform="translate(696 487)"/><circle data-name="Ellipse 8" cx="4" cy="4" r="4" transform="translate(724 487)"/><circle data-name="Ellipse 8" cx="4" cy="4" r="4" transform="translate(752 487)"/><circle data-name="Ellipse 8" cx="4" cy="4" r="4" transform="translate(780 487)"/><circle data-name="Ellipse 8" cx="4" cy="4" r="4" transform="translate(808 487)"/><circle data-name="Ellipse 8" cx="4" cy="4" r="4" transform="translate(836 487)"/><circle data-name="Ellipse 8" cx="4" cy="4" r="4" transform="translate(864 487)"/><circle data-name="Ellipse 8" cx="4" cy="4" r="4" transform="translate(892 487)"/><circle data-name="Ellipse 8" cx="4" cy="4" r="4" transform="translate(640 515)"/><circle data-name="Ellipse 8" cx="4" cy="4" r="4" transform="translate(668 515)"/><circle data-name="Ellipse 8" cx="4" cy="4" r="4" transform="translate(696 515)"/><circle data-name="Ellipse 8" cx="4" cy="4" r="4" transform="translate(724 515)"/><circle data-name="Ellipse 8" cx="4" cy="4" r="4" transform="translate(752 515)"/><circle data-name="Ellipse 8" cx="4" cy="4" r="4" transform="translate(780 515)"/><circle data-name="Ellipse 8" cx="4" cy="4" r="4" transform="translate(808 515)"/><circle data-name="Ellipse 8" cx="4" cy="4" r="4" transform="translate(836 515)"/><circle data-name="Ellipse 8" cx="4" cy="4" r="4" transform="translate(864 515)"/><circle data-name="Ellipse 8" cx="4" cy="4" r="4" transform="translate(892 515)"/><circle data-name="Ellipse 8" cx="4" cy="4" r="4" transform="translate(640 543)"/><circle data-name="Ellipse 8" cx="4" cy="4" r="4" transform="translate(668 543)"/><circle data-name="Ellipse 8" cx="4" cy="4" r="4" transform="translate(696 543)"/><circle data-name="Ellipse 8" cx="4" cy="4" r="4" transform="translate(724 543)"/><circle data-name="Ellipse 8" cx="4" cy="4" r="4" transform="translate(752 543)"/><circle data-name="Ellipse 8" cx="4" cy="4" r="4" transform="translate(780 543)"/><circle data-name="Ellipse 8" cx="4" cy="4" r="4" transform="translate(808 543)"/><circle data-name="Ellipse 8" cx="4" cy="4" r="4" transform="translate(836 543)"/><circle data-name="Ellipse 8" cx="4" cy="4" r="4" transform="translate(864 543)"/><circle data-name="Ellipse 8" cx="4" cy="4" r="4" transform="translate(892 543)"/><circle data-name="Ellipse 8" cx="4" cy="4" r="4" transform="translate(640 571)"/><circle data-name="Ellipse 8" cx="4" cy="4" r="4" transform="translate(668 571)"/><circle data-name="Ellipse 8" cx="4" cy="4" r="4" transform="translate(696 571)"/><circle data-name="Ellipse 8" cx="4" cy="4" r="4" transform="translate(724 571)"/><circle data-name="Ellipse 8" cx="4" cy="4" r="4" transform="translate(752 571)"/><circle data-name="Ellipse 8" cx="4" cy="4" r="4" transform="translate(780 571)"/><circle data-name="Ellipse 8" cx="4" cy="4" r="4" transform="translate(808 571)"/><circle data-name="Ellipse 8" cx="4" cy="4" r="4" transform="translate(836 571)"/><circle data-name="Ellipse 8" cx="4" cy="4" r="4" transform="translate(864 571)"/><circle data-name="Ellipse 8" cx="4" cy="4" r="4" transform="translate(892 571)"/><circle data-name="Ellipse 8" cx="4" cy="4" r="4" transform="translate(640 599)"/><circle data-name="Ellipse 8" cx="4" cy="4" r="4" transform="translate(668 599)"/><circle data-name="Ellipse 8" cx="4" cy="4" r="4" transform="translate(696 599)"/><circle data-name="Ellipse 8" cx="4" cy="4" r="4" transform="translate(724 599)"/><circle data-name="Ellipse 8" cx="4" cy="4" r="4" transform="translate(752 599)"/><circle data-name="Ellipse 8" cx="4" cy="4" r="4" transform="translate(780 599)"/><circle data-name="Ellipse 8" cx="4" cy="4" r="4" transform="translate(808 599)"/><circle data-name="Ellipse 8" cx="4" cy="4" r="4" transform="translate(836 599)"/><circle data-name="Ellipse 8" cx="4" cy="4" r="4" transform="translate(864 599)"/><circle data-name="Ellipse 8" cx="4" cy="4" r="4" transform="translate(892 599)"/></g></svg>