<svg xmlns="http://www.w3.org/2000/svg" width="16" height="16"><path d="M6.464 7.088A1.943 1.943 0 0 1 6.7 6.4a1.241 1.241 0 0 1 .472-.5 1.4 1.4 0 0 1 .728-.188 1.368 1.368 0 0 1 .5.1 1.52 1.52 0 0 1 .424.288 1.54 1.54 0 0 1 .272.424 1.248 1.248 0 0 1 .1.512h1.44A2.643 2.643 0 0 0 10.4 6a2.19 2.19 0 0 0-.544-.8 2.787 2.787 0 0 0-.864-.528 3.09 3.09 0 0 0-1.112-.184 3.127 3.127 0 0 0-1.36.272 2.955 2.955 0 0 0-.96.736 3.007 3.007 0 0 0-.568 1.088A4.685 4.685 0 0 0 4.8 7.9v.216a4.684 4.684 0 0 0 .184 1.312 2.908 2.908 0 0 0 .568 1.08 2.829 2.829 0 0 0 .96.728 3.246 3.246 0 0 0 1.36.272 3.051 3.051 0 0 0 1.056-.184 2.5 2.5 0 0 0 .864-.52 2.475 2.475 0 0 0 .608-.736 2.394 2.394 0 0 0 .224-.92H9.2a.973.973 0 0 1-.128.456 1.337 1.337 0 0 1-.272.376 1.528 1.528 0 0 1-.432.24 1.589 1.589 0 0 1-.48.08 1.359 1.359 0 0 1-.712-.184A1.127 1.127 0 0 1 6.7 9.6a1.889 1.889 0 0 1-.24-.688 5.392 5.392 0 0 1-.064-.8V7.9a5.169 5.169 0 0 1 .064-.808M8 0a8 8 0 1 0 8 8 8 8 0 0 0-8-8m0 14.4A6.4 6.4 0 1 1 14.4 8 6.408 6.408 0 0 1 8 14.4z" fill="#fff"/></svg>