<svg width="35" xmlns="http://www.w3.org/2000/svg" viewBox="0 0 223.35 359.52"><g data-name="Layer 2"><g data-name="Layer 1"><path d="M111.68 350.4c-19.85-33.84-107-185.55-107-238.72a107 107 0 1 1 214.08 0c-.04 53.17-87.24 204.88-107.08 238.72z" fill="#db2b1b"/><path d="M111.68 9.28a102.51 102.51 0 0 1 102.4 102.4c0 16.55-9.5 54.75-54.77 142.72-18.59 36.13-37.36 69.13-47.63 86.81-10.27-17.68-29-50.68-47.64-86.81-45.26-88-54.76-126.17-54.76-142.72a102.51 102.51 0 0 1 102.4-102.4m0-9.28A111.68 111.68 0 0 0 0 111.68c0 61.67 111.68 247.84 111.68 247.84s111.67-186.17 111.67-247.84A111.68 111.68 0 0 0 111.68 0z" fill="#9e190d"/><circle cx="111.68" cy="111.68" r="107.04" transform="rotate(-80.78 111.679 111.678)" fill="#01a1d1"/><path d="M111.68 9.28a102.4 102.4 0 1 1-102.4 102.4 102.51 102.51 0 0 1 102.4-102.4m0-9.28a111.68 111.68 0 1 0 111.67 111.68A111.68 111.68 0 0 0 111.68 0z" fill="#007499"/><circle cx="111.68" cy="111.68" r="43.22" transform="rotate(-80.78 111.679 111.678)" fill="#d6d7d7"/><path d="M111.68 73.09a38.59 38.59 0 1 1-38.59 38.59 38.63 38.63 0 0 1 38.59-38.59m0-9.27a47.86 47.86 0 1 0 47.86 47.86 47.85 47.85 0 0 0-47.86-47.86z" fill="gray"/></g></g></svg>