<svg xmlns="http://www.w3.org/2000/svg" viewBox="0 0 651.97 425.2"><defs><style>.cls-6,.cls-7{fill-rule:evenodd}.cls-6{fill:gray}.cls-7{fill:#d6d7d7}</style></defs><g id="Layer_2" data-name="Layer 2"><g id="Layer_1-2" data-name="Layer 1"><path d="M164.4 104.87a40.27 40.27 0 0 1 27.65 12.26q11.2 11.43 11.14 26.89a36.49 36.49 0 0 1-11.39 26.72c-7.48 7.55-16.7 11.54-27.77 12.09l-58.12-.25v-9.24l55.8.24A31.57 31.57 0 0 0 184 165a28.51 28.51 0 0 0 .2-42.17 31.5 31.5 0 0 0-22.2-8.73l-16.78-.1v-.3a40.27 40.27 0 0 1-27.66-12.26 37.54 37.54 0 0 1 .26-53.61c7.48-7.55 16.7-11.54 27.77-12.08l38.66.16-.05 9.25-36.34-.16a31.51 31.51 0 0 0-22.25 8.55 27.88 27.88 0 0 0-9.42 21.11 28.26 28.26 0 0 0 9.22 21.25 31.09 31.09 0 0 0 22.16 8.86zm46.43-68.81l98.09.42-.04 9.24-44.17-.19-.66 137.72-9.69-.04.66-137.72-44.23-.19.04-9.24zm343.05 1.47l98.09.42-.05 9.24-44.16-.19-.66 137.73-9.7-.04.67-137.73-44.23-.19.04-9.24zm-60.46 72.66l51.82 74.27-11.83-.05-57.71-82.94h11.82a28.47 28.47 0 0 0 20.37-8A25.77 25.77 0 0 0 516.55 74a25.43 25.43 0 0 0-8.47-19.47 28.81 28.81 0 0 0-20.3-8l-29.15-.13-.63 137.69-9.76-.05.71-147 38.91.17a38.22 38.22 0 0 1 27.22 10.9c7.53 7.2 11.31 15.8 11.26 25.87a34.67 34.67 0 0 1-9.44 24 37.06 37.06 0 0 1-23.45 12.22M150 313.56l51.88 74.21h-11.83l-57.72-82.88 11.83.05a28.63 28.63 0 0 0 20.36-8 26 26 0 0 0 8.67-19.51 25.61 25.61 0 0 0-8.48-19.47 29 29 0 0 0-20.29-8l-29.21-.13-.66 137.67h-9.76l.7-146.91 39 .17a38.19 38.19 0 0 1 27.23 10.9c7.53 7.2 11.31 15.8 11.26 25.87a34.78 34.78 0 0 1-9.44 23.95A37.25 37.25 0 0 1 150 313.56m69.66 74.29l-10.07-.04 49.12-146.7 47.96 147.11-10-.04-38.11-116.33-38.9 116zM.05 240l98.08.42-.04 9.24-44.17-.19-.65 137.67-9.76-.05.65-137.66L0 249.24.05 240zm561.83 140.02l86.82.37-.04 9.24-96.58-.42.7-147.14 9.76.05-.66 137.9zm-19.15-128.51l-85.02-.37-.28 59.48 61.24.26-.04 9.24-61.25-.26-.28 59.71 85.01.36-.04 9.24-94.77-.4.7-146.91 94.77.41-.04 9.24z" fill="#676766"/><path fill-rule="evenodd" fill="#db2b1b" d="M317.32 241.36l47.29 145.45 48.98-145.04-96.27-.41z"/><path fill="#9e190d" d="M317.32 241.36l-12.51-.05 59.61 183.89 61.69-183.37-12.52-.06-48.98 145.04-47.29-145.45z"/><path fill="#01a1d1" fill-rule="evenodd" d="M317.6 183.25l48.68-144.98 47.59 145.39-96.27-.41z"/><path fill="#007499" d="M414 183.84l12.51.05L366.52 0l-61.31 183.37 12.52.06 48.61-144.98L414 183.84z"/><path class="cls-6" d="M365.31 278.35c37.6.16 68.39-28.73 68.56-64.27s-30.34-64.76-67.94-64.92-68.38 28.73-68.55 64.33 30.34 64.7 67.93 64.86"/><path class="cls-7" d="M365.37 267.51c31.21.14 56.85-23.92 57-53.48s-25.26-53.9-56.48-54-56.85 23.92-57 53.54 25.2 53.84 56.48 54"/><path d="M428.75 238.28a63.69 63.69 0 0 1-15.12 21.38A69.25 69.25 0 0 1 391 273.78l-44.27-42.3L384.47 196z" fill-rule="evenodd" fill="#676766"/><path d="M419.78 229.77c-5.58 17-19.79 30.31-37.77 35.44l-35.3-33.73L384.47 196z" fill="#c1c2c2" fill-rule="evenodd"/><path class="cls-6" d="M365.5 239c14.64.06 26.64-11.2 26.71-25.06s-11.83-25.29-26.47-25.35-26.64 11.2-26.7 25.12S350.86 238.9 365.5 239"/><path class="cls-6" d="M365.55 229.9c9.38 0 17.05-7.16 17.09-16s-7.56-16.21-16.94-16.25-17.11 7.16-17.15 16.1 7.61 16.15 17 16.19"/><path class="cls-7" d="M365.55 228.89c8.76 0 16-6.74 16-15s-7.12-15.19-15.88-15.23-16 6.74-16.08 15.09 7.12 15.14 15.94 15.18"/></g></g></svg>