<svg xmlns="http://www.w3.org/2000/svg" width="44" height="44"><path d="M22.001 43.999a21.854 21.854 0 0 1-15.556-6.444A21.855 21.855 0 0 1 .001 21.999 21.855 21.855 0 0 1 6.445 6.442 21.857 21.857 0 0 1 22.001-.001a21.856 21.856 0 0 1 15.557 6.443 21.855 21.855 0 0 1 6.443 15.557 21.854 21.854 0 0 1-6.443 15.555 21.853 21.853 0 0 1-15.557 6.445zm-4-29.226a1 1 0 0 0-1 1v13.446a1 1 0 0 0 1 1 1 1 0 0 0 .519-.147l11.072-6.723a.992.992 0 0 0 .481-.855.992.992 0 0 0-.481-.855L18.52 14.916a1 1 0 0 0-.519-.142z" fill="#fff" opacity=".8"/></svg>