<svg xmlns="http://www.w3.org/2000/svg" width="69.999" height="69.999"><path data-name="play boyuk" d="M35 70.001a34.775 34.775 0 0 1-13.622-2.75 34.874 34.874 0 0 1-11.126-7.5 34.875 34.875 0 0 1-7.5-11.125A34.785 34.785 0 0 1 0 35.001a34.785 34.785 0 0 1 2.751-13.624 34.875 34.875 0 0 1 7.5-11.125 34.874 34.874 0 0 1 11.126-7.5A34.775 34.775 0 0 1 35 .001a34.776 34.776 0 0 1 13.623 2.75 34.893 34.893 0 0 1 11.126 7.5 34.888 34.888 0 0 1 7.5 11.125A34.788 34.788 0 0 1 70 35.001a34.788 34.788 0 0 1-2.75 13.624 34.888 34.888 0 0 1-7.5 11.125 34.893 34.893 0 0 1-11.126 7.5A34.776 34.776 0 0 1 35 70.001zM28.047 23.05a1 1 0 0 0-1 1v23.49a1 1 0 0 0 1 1 1 1 0 0 0 .519-.147L47.91 36.649a.992.992 0 0 0 .482-.854.992.992 0 0 0-.482-.854L28.566 23.194a.991.991 0 0 0-.519-.147z" fill="#fff" opacity=".8"/></svg>