<svg xmlns="http://www.w3.org/2000/svg" width="17" height="16"><g fill="none"><path d="M8.5 12.859L13.753 16l-1.394-5.92L17 6.1l-6.111-.522L8.5 0 6.111 5.575 0 6.1l4.633 3.98L3.247 16z"/><path d="M4.758 13.931l3.229-1.93.513-.307.513.307 3.225 1.928-.852-3.62-.14-.592.462-.396 2.832-2.43-3.737-.32-.597-.051-.237-.551L8.5 2.539l-1.47 3.43-.236.551-.597.051-3.74.32 2.827 2.43.46.396-.138.59-.848 3.624M13.753 16L8.5 12.859 3.247 16l1.386-5.92L0 6.097l6.111-.522L8.5 0l2.389 5.575L17 6.097l-4.641 3.983L13.753 16z" fill="#f5b70d"/></g></svg>