<svg xmlns="http://www.w3.org/2000/svg" width="260" height="120" viewBox="0 0 260 120">
  <g id="about_bg_nöqtə_qırmızı" data-name="about bg nöqtə qırmızı" transform="translate(-1028 -1014.75)">
    <circle id="Ellipse_8" data-name="Ellipse 8" cx="4" cy="4" r="4" transform="translate(1028 1014.75)" fill="#ffbfc4"/>
    <circle id="Ellipse_8-2" data-name="Ellipse 8" cx="4" cy="4" r="4" transform="translate(1056 1014.75)" fill="#ffbfc4"/>
    <circle id="Ellipse_8-3" data-name="Ellipse 8" cx="4" cy="4" r="4" transform="translate(1084 1014.75)" fill="#ffbfc4"/>
    <circle id="Ellipse_8-4" data-name="Ellipse 8" cx="4" cy="4" r="4" transform="translate(1112 1014.75)" fill="#ffbfc4"/>
    <circle id="Ellipse_8-5" data-name="Ellipse 8" cx="4" cy="4" r="4" transform="translate(1140 1014.75)" fill="#ffbfc4"/>
    <circle id="Ellipse_8-6" data-name="Ellipse 8" cx="4" cy="4" r="4" transform="translate(1168 1014.75)" fill="#ffbfc4"/>
    <circle id="Ellipse_8-7" data-name="Ellipse 8" cx="4" cy="4" r="4" transform="translate(1196 1014.75)" fill="#ffbfc4"/>
    <circle id="Ellipse_8-8" data-name="Ellipse 8" cx="4" cy="4" r="4" transform="translate(1224 1014.75)" fill="#ffbfc4"/>
    <circle id="Ellipse_8-9" data-name="Ellipse 8" cx="4" cy="4" r="4" transform="translate(1252 1014.75)" fill="#ffbfc4"/>
    <circle id="Ellipse_8-10" data-name="Ellipse 8" cx="4" cy="4" r="4" transform="translate(1280 1014.75)" fill="#ffbfc4"/>
    <circle id="Ellipse_8-11" data-name="Ellipse 8" cx="4" cy="4" r="4" transform="translate(1028 1042.75)" fill="#ffbfc4"/>
    <circle id="Ellipse_8-12" data-name="Ellipse 8" cx="4" cy="4" r="4" transform="translate(1056 1042.75)" fill="#ffbfc4"/>
    <circle id="Ellipse_8-13" data-name="Ellipse 8" cx="4" cy="4" r="4" transform="translate(1084 1042.75)" fill="#ffbfc4"/>
    <circle id="Ellipse_8-14" data-name="Ellipse 8" cx="4" cy="4" r="4" transform="translate(1112 1042.75)" fill="#ffbfc4"/>
    <circle id="Ellipse_8-15" data-name="Ellipse 8" cx="4" cy="4" r="4" transform="translate(1140 1042.75)" fill="#ffbfc4"/>
    <circle id="Ellipse_8-16" data-name="Ellipse 8" cx="4" cy="4" r="4" transform="translate(1168 1042.75)" fill="#ffbfc4"/>
    <circle id="Ellipse_8-17" data-name="Ellipse 8" cx="4" cy="4" r="4" transform="translate(1196 1042.75)" fill="#ffbfc4"/>
    <circle id="Ellipse_8-18" data-name="Ellipse 8" cx="4" cy="4" r="4" transform="translate(1224 1042.75)" fill="#ffbfc4"/>
    <circle id="Ellipse_8-19" data-name="Ellipse 8" cx="4" cy="4" r="4" transform="translate(1252 1042.75)" fill="#ffbfc4"/>
    <circle id="Ellipse_8-20" data-name="Ellipse 8" cx="4" cy="4" r="4" transform="translate(1280 1042.75)" fill="#ffbfc4"/>
    <circle id="Ellipse_8-21" data-name="Ellipse 8" cx="4" cy="4" r="4" transform="translate(1028 1070.75)" fill="#ffbfc4"/>
    <circle id="Ellipse_8-22" data-name="Ellipse 8" cx="4" cy="4" r="4" transform="translate(1056 1070.75)" fill="#ffbfc4"/>
    <circle id="Ellipse_8-23" data-name="Ellipse 8" cx="4" cy="4" r="4" transform="translate(1084 1070.75)" fill="#ffbfc4"/>
    <circle id="Ellipse_8-24" data-name="Ellipse 8" cx="4" cy="4" r="4" transform="translate(1112 1070.75)" fill="#ffbfc4"/>
    <circle id="Ellipse_8-25" data-name="Ellipse 8" cx="4" cy="4" r="4" transform="translate(1140 1070.75)" fill="#ffbfc4"/>
    <circle id="Ellipse_8-26" data-name="Ellipse 8" cx="4" cy="4" r="4" transform="translate(1168 1070.75)" fill="#ffbfc4"/>
    <circle id="Ellipse_8-27" data-name="Ellipse 8" cx="4" cy="4" r="4" transform="translate(1196 1070.75)" fill="#ffbfc4"/>
    <circle id="Ellipse_8-28" data-name="Ellipse 8" cx="4" cy="4" r="4" transform="translate(1224 1070.75)" fill="#ffbfc4"/>
    <circle id="Ellipse_8-29" data-name="Ellipse 8" cx="4" cy="4" r="4" transform="translate(1252 1070.75)" fill="#ffbfc4"/>
    <circle id="Ellipse_8-30" data-name="Ellipse 8" cx="4" cy="4" r="4" transform="translate(1280 1070.75)" fill="#ffbfc4"/>
    <circle id="Ellipse_8-31" data-name="Ellipse 8" cx="4" cy="4" r="4" transform="translate(1028 1098.75)" fill="#ffbfc4"/>
    <circle id="Ellipse_8-32" data-name="Ellipse 8" cx="4" cy="4" r="4" transform="translate(1056 1098.75)" fill="#ffbfc4"/>
    <circle id="Ellipse_8-33" data-name="Ellipse 8" cx="4" cy="4" r="4" transform="translate(1084 1098.75)" fill="#ffbfc4"/>
    <circle id="Ellipse_8-34" data-name="Ellipse 8" cx="4" cy="4" r="4" transform="translate(1112 1098.75)" fill="#ffbfc4"/>
    <circle id="Ellipse_8-35" data-name="Ellipse 8" cx="4" cy="4" r="4" transform="translate(1140 1098.75)" fill="#ffbfc4"/>
    <circle id="Ellipse_8-36" data-name="Ellipse 8" cx="4" cy="4" r="4" transform="translate(1168 1098.75)" fill="#ffbfc4"/>
    <circle id="Ellipse_8-37" data-name="Ellipse 8" cx="4" cy="4" r="4" transform="translate(1196 1098.75)" fill="#ffbfc4"/>
    <circle id="Ellipse_8-38" data-name="Ellipse 8" cx="4" cy="4" r="4" transform="translate(1224 1098.75)" fill="#ffbfc4"/>
    <circle id="Ellipse_8-39" data-name="Ellipse 8" cx="4" cy="4" r="4" transform="translate(1252 1098.75)" fill="#ffbfc4"/>
    <circle id="Ellipse_8-40" data-name="Ellipse 8" cx="4" cy="4" r="4" transform="translate(1280 1098.75)" fill="#ffbfc4"/>
    <circle id="Ellipse_8-41" data-name="Ellipse 8" cx="4" cy="4" r="4" transform="translate(1028 1126.75)" fill="#ffbfc4"/>
    <circle id="Ellipse_8-42" data-name="Ellipse 8" cx="4" cy="4" r="4" transform="translate(1056 1126.75)" fill="#ffbfc4"/>
    <circle id="Ellipse_8-43" data-name="Ellipse 8" cx="4" cy="4" r="4" transform="translate(1084 1126.75)" fill="#ffbfc4"/>
    <circle id="Ellipse_8-44" data-name="Ellipse 8" cx="4" cy="4" r="4" transform="translate(1112 1126.75)" fill="#ffbfc4"/>
    <circle id="Ellipse_8-45" data-name="Ellipse 8" cx="4" cy="4" r="4" transform="translate(1140 1126.75)" fill="#ffbfc4"/>
    <circle id="Ellipse_8-46" data-name="Ellipse 8" cx="4" cy="4" r="4" transform="translate(1168 1126.75)" fill="#ffbfc4"/>
    <circle id="Ellipse_8-47" data-name="Ellipse 8" cx="4" cy="4" r="4" transform="translate(1196 1126.75)" fill="#ffbfc4"/>
    <circle id="Ellipse_8-48" data-name="Ellipse 8" cx="4" cy="4" r="4" transform="translate(1224 1126.75)" fill="#ffbfc4"/>
    <circle id="Ellipse_8-49" data-name="Ellipse 8" cx="4" cy="4" r="4" transform="translate(1252 1126.75)" fill="#ffbfc4"/>
    <circle id="Ellipse_8-50" data-name="Ellipse 8" cx="4" cy="4" r="4" transform="translate(1280 1126.75)" fill="#ffbfc4"/>
  </g>
</svg>
