<svg xmlns="http://www.w3.org/2000/svg" width="260" height="120" viewBox="0 0 260 120">
  <g id="about_bg_nöqtə_mavi" data-name="about bg nöqtə mavi" transform="translate(-640 -487)">
    <circle id="Ellipse_8" data-name="Ellipse 8" cx="4" cy="4" r="4" transform="translate(640 487)" fill="#c7edff"/>
    <circle id="Ellipse_8-2" data-name="Ellipse 8" cx="4" cy="4" r="4" transform="translate(668 487)" fill="#c7edff"/>
    <circle id="Ellipse_8-3" data-name="Ellipse 8" cx="4" cy="4" r="4" transform="translate(696 487)" fill="#c7edff"/>
    <circle id="Ellipse_8-4" data-name="Ellipse 8" cx="4" cy="4" r="4" transform="translate(724 487)" fill="#c7edff"/>
    <circle id="Ellipse_8-5" data-name="Ellipse 8" cx="4" cy="4" r="4" transform="translate(752 487)" fill="#c7edff"/>
    <circle id="Ellipse_8-6" data-name="Ellipse 8" cx="4" cy="4" r="4" transform="translate(780 487)" fill="#c7edff"/>
    <circle id="Ellipse_8-7" data-name="Ellipse 8" cx="4" cy="4" r="4" transform="translate(808 487)" fill="#c7edff"/>
    <circle id="Ellipse_8-8" data-name="Ellipse 8" cx="4" cy="4" r="4" transform="translate(836 487)" fill="#c7edff"/>
    <circle id="Ellipse_8-9" data-name="Ellipse 8" cx="4" cy="4" r="4" transform="translate(864 487)" fill="#c7edff"/>
    <circle id="Ellipse_8-10" data-name="Ellipse 8" cx="4" cy="4" r="4" transform="translate(892 487)" fill="#c7edff"/>
    <circle id="Ellipse_8-11" data-name="Ellipse 8" cx="4" cy="4" r="4" transform="translate(640 515)" fill="#c7edff"/>
    <circle id="Ellipse_8-12" data-name="Ellipse 8" cx="4" cy="4" r="4" transform="translate(668 515)" fill="#c7edff"/>
    <circle id="Ellipse_8-13" data-name="Ellipse 8" cx="4" cy="4" r="4" transform="translate(696 515)" fill="#c7edff"/>
    <circle id="Ellipse_8-14" data-name="Ellipse 8" cx="4" cy="4" r="4" transform="translate(724 515)" fill="#c7edff"/>
    <circle id="Ellipse_8-15" data-name="Ellipse 8" cx="4" cy="4" r="4" transform="translate(752 515)" fill="#c7edff"/>
    <circle id="Ellipse_8-16" data-name="Ellipse 8" cx="4" cy="4" r="4" transform="translate(780 515)" fill="#c7edff"/>
    <circle id="Ellipse_8-17" data-name="Ellipse 8" cx="4" cy="4" r="4" transform="translate(808 515)" fill="#c7edff"/>
    <circle id="Ellipse_8-18" data-name="Ellipse 8" cx="4" cy="4" r="4" transform="translate(836 515)" fill="#c7edff"/>
    <circle id="Ellipse_8-19" data-name="Ellipse 8" cx="4" cy="4" r="4" transform="translate(864 515)" fill="#c7edff"/>
    <circle id="Ellipse_8-20" data-name="Ellipse 8" cx="4" cy="4" r="4" transform="translate(892 515)" fill="#c7edff"/>
    <circle id="Ellipse_8-21" data-name="Ellipse 8" cx="4" cy="4" r="4" transform="translate(640 543)" fill="#c7edff"/>
    <circle id="Ellipse_8-22" data-name="Ellipse 8" cx="4" cy="4" r="4" transform="translate(668 543)" fill="#c7edff"/>
    <circle id="Ellipse_8-23" data-name="Ellipse 8" cx="4" cy="4" r="4" transform="translate(696 543)" fill="#c7edff"/>
    <circle id="Ellipse_8-24" data-name="Ellipse 8" cx="4" cy="4" r="4" transform="translate(724 543)" fill="#c7edff"/>
    <circle id="Ellipse_8-25" data-name="Ellipse 8" cx="4" cy="4" r="4" transform="translate(752 543)" fill="#c7edff"/>
    <circle id="Ellipse_8-26" data-name="Ellipse 8" cx="4" cy="4" r="4" transform="translate(780 543)" fill="#c7edff"/>
    <circle id="Ellipse_8-27" data-name="Ellipse 8" cx="4" cy="4" r="4" transform="translate(808 543)" fill="#c7edff"/>
    <circle id="Ellipse_8-28" data-name="Ellipse 8" cx="4" cy="4" r="4" transform="translate(836 543)" fill="#c7edff"/>
    <circle id="Ellipse_8-29" data-name="Ellipse 8" cx="4" cy="4" r="4" transform="translate(864 543)" fill="#c7edff"/>
    <circle id="Ellipse_8-30" data-name="Ellipse 8" cx="4" cy="4" r="4" transform="translate(892 543)" fill="#c7edff"/>
    <circle id="Ellipse_8-31" data-name="Ellipse 8" cx="4" cy="4" r="4" transform="translate(640 571)" fill="#c7edff"/>
    <circle id="Ellipse_8-32" data-name="Ellipse 8" cx="4" cy="4" r="4" transform="translate(668 571)" fill="#c7edff"/>
    <circle id="Ellipse_8-33" data-name="Ellipse 8" cx="4" cy="4" r="4" transform="translate(696 571)" fill="#c7edff"/>
    <circle id="Ellipse_8-34" data-name="Ellipse 8" cx="4" cy="4" r="4" transform="translate(724 571)" fill="#c7edff"/>
    <circle id="Ellipse_8-35" data-name="Ellipse 8" cx="4" cy="4" r="4" transform="translate(752 571)" fill="#c7edff"/>
    <circle id="Ellipse_8-36" data-name="Ellipse 8" cx="4" cy="4" r="4" transform="translate(780 571)" fill="#c7edff"/>
    <circle id="Ellipse_8-37" data-name="Ellipse 8" cx="4" cy="4" r="4" transform="translate(808 571)" fill="#c7edff"/>
    <circle id="Ellipse_8-38" data-name="Ellipse 8" cx="4" cy="4" r="4" transform="translate(836 571)" fill="#c7edff"/>
    <circle id="Ellipse_8-39" data-name="Ellipse 8" cx="4" cy="4" r="4" transform="translate(864 571)" fill="#c7edff"/>
    <circle id="Ellipse_8-40" data-name="Ellipse 8" cx="4" cy="4" r="4" transform="translate(892 571)" fill="#c7edff"/>
    <circle id="Ellipse_8-41" data-name="Ellipse 8" cx="4" cy="4" r="4" transform="translate(640 599)" fill="#c7edff"/>
    <circle id="Ellipse_8-42" data-name="Ellipse 8" cx="4" cy="4" r="4" transform="translate(668 599)" fill="#c7edff"/>
    <circle id="Ellipse_8-43" data-name="Ellipse 8" cx="4" cy="4" r="4" transform="translate(696 599)" fill="#c7edff"/>
    <circle id="Ellipse_8-44" data-name="Ellipse 8" cx="4" cy="4" r="4" transform="translate(724 599)" fill="#c7edff"/>
    <circle id="Ellipse_8-45" data-name="Ellipse 8" cx="4" cy="4" r="4" transform="translate(752 599)" fill="#c7edff"/>
    <circle id="Ellipse_8-46" data-name="Ellipse 8" cx="4" cy="4" r="4" transform="translate(780 599)" fill="#c7edff"/>
    <circle id="Ellipse_8-47" data-name="Ellipse 8" cx="4" cy="4" r="4" transform="translate(808 599)" fill="#c7edff"/>
    <circle id="Ellipse_8-48" data-name="Ellipse 8" cx="4" cy="4" r="4" transform="translate(836 599)" fill="#c7edff"/>
    <circle id="Ellipse_8-49" data-name="Ellipse 8" cx="4" cy="4" r="4" transform="translate(864 599)" fill="#c7edff"/>
    <circle id="Ellipse_8-50" data-name="Ellipse 8" cx="4" cy="4" r="4" transform="translate(892 599)" fill="#c7edff"/>
  </g>
</svg>
