<svg  width="35" xmlns="http://www.w3.org/2000/svg" viewBox="0 0 223.35 359.52"><defs><style>.cls-1{fill:#db2b1b;}.cls-2{fill:#9e190d;}.cls-3{fill:#01a1d1;}.cls-4{fill:#007499;}.cls-5{fill:#d6d7d7;}.cls-6{fill:gray;}</style></defs><title>loc pin map</title><g id="Layer_2" data-name="Layer 2"><g id="Layer_1-2" data-name="Layer 1"><path class="cls-1" d="M111.68,350.4c-19.85-33.84-107-185.55-107-238.72a107,107,0,1,1,214.08,0C218.72,164.85,131.52,316.56,111.68,350.4Z"/><path class="cls-2" d="M111.68,9.28a102.51,102.51,0,0,1,102.4,102.4c0,16.55-9.5,54.75-54.77,142.72-18.59,36.13-37.36,69.13-47.63,86.81-10.27-17.68-29-50.68-47.64-86.81-45.26-88-54.76-126.17-54.76-142.72A102.51,102.51,0,0,1,111.68,9.28m0-9.28A111.68,111.68,0,0,0,0,111.68c0,61.67,111.68,247.84,111.68,247.84S223.35,173.35,223.35,111.68A111.68,111.68,0,0,0,111.68,0Z"/><circle class="cls-3" cx="111.68" cy="111.68" r="107.04" transform="translate(-16.45 204.02) rotate(-80.78)"/><path class="cls-4" d="M111.68,9.28A102.4,102.4,0,1,1,9.28,111.68,102.51,102.51,0,0,1,111.68,9.28m0-9.28A111.68,111.68,0,1,0,223.35,111.68,111.68,111.68,0,0,0,111.68,0Z"/><circle class="cls-5" cx="111.68" cy="111.68" r="43.22" transform="translate(-16.45 204.02) rotate(-80.78)"/><path class="cls-6" d="M111.68,73.09a38.59,38.59,0,1,1-38.59,38.59,38.63,38.63,0,0,1,38.59-38.59m0-9.27a47.86,47.86,0,1,0,47.86,47.86,47.85,47.85,0,0,0-47.86-47.86Z"/></g></g></svg>