<svg xmlns="http://www.w3.org/2000/svg" viewBox="0 0 651.97 425.2"><defs><style>.cls-1,.cls-8{fill:#676766;}.cls-2{fill:#db2b1b;}.cls-2,.cls-4,.cls-6,.cls-7,.cls-8,.cls-9{fill-rule:evenodd;}.cls-3{fill:#9e190d;}.cls-4{fill:#01a1d1;}.cls-5{fill:#007499;}.cls-6{fill:gray;}.cls-7{fill:#d6d7d7;}.cls-9{fill:#c1c2c2;}</style></defs><title>Asset 3</title><g id="Layer_2" data-name="Layer 2"><g id="Layer_1-2" data-name="Layer 1"><path class="cls-1" d="M164.4,104.87a40.27,40.27,0,0,1,27.65,12.26q11.2,11.43,11.14,26.89a36.49,36.49,0,0,1-11.39,26.72c-7.48,7.55-16.7,11.54-27.77,12.09l-58.12-.25,0-9.24,55.8.24A31.57,31.57,0,0,0,184,165a28.51,28.51,0,0,0,.2-42.17A31.5,31.5,0,0,0,162,114.1L145.22,114v-.3a40.27,40.27,0,0,1-27.66-12.26,37.54,37.54,0,0,1,.26-53.61c7.48-7.55,16.7-11.54,27.77-12.08l38.66.16-.05,9.25L147.86,45a31.51,31.51,0,0,0-22.25,8.55,27.88,27.88,0,0,0-9.42,21.11,28.26,28.26,0,0,0,9.22,21.25,31.09,31.09,0,0,0,22.16,8.86Z"/><polygon class="cls-1" points="210.83 36.06 308.92 36.48 308.88 45.72 264.71 45.53 264.05 183.25 254.36 183.21 255.02 45.49 210.79 45.3 210.83 36.06"/><polygon class="cls-1" points="553.88 37.53 651.97 37.95 651.92 47.19 607.76 47 607.1 184.73 597.4 184.69 598.07 46.96 553.84 46.77 553.88 37.53"/><path class="cls-1" d="M493.42,110.19l51.82,74.27-11.83-.05L475.7,101.47l11.82,0a28.47,28.47,0,0,0,20.37-8A25.77,25.77,0,0,0,516.55,74a25.43,25.43,0,0,0-8.47-19.47,28.81,28.81,0,0,0-20.3-8l-29.15-.13L458,184.09l-9.76-.05.71-147,38.91.17a38.22,38.22,0,0,1,27.22,10.9c7.53,7.2,11.31,15.8,11.26,25.87a34.67,34.67,0,0,1-9.44,24,37.06,37.06,0,0,1-23.45,12.22"/><path class="cls-1" d="M150,313.56l51.88,74.21-11.83,0-57.72-82.88,11.83.05a28.63,28.63,0,0,0,20.36-8,26,26,0,0,0,8.67-19.51,25.61,25.61,0,0,0-8.48-19.47,29,29,0,0,0-20.29-8l-29.21-.13-.66,137.67-9.76,0,.7-146.91,39,.17a38.19,38.19,0,0,1,27.23,10.9c7.53,7.2,11.31,15.8,11.26,25.87a34.78,34.78,0,0,1-9.44,23.95A37.25,37.25,0,0,1,150,313.56"/><polygon class="cls-1" points="219.66 387.85 209.59 387.81 258.71 241.11 306.67 388.22 296.67 388.18 258.56 271.85 219.66 387.85"/><polygon class="cls-1" points="0.05 240 98.13 240.42 98.09 249.66 53.92 249.47 53.27 387.14 43.51 387.09 44.16 249.43 0 249.24 0.05 240"/><polygon class="cls-1" points="561.88 380.02 648.7 380.39 648.66 389.63 552.08 389.21 552.78 242.07 562.54 242.12 561.88 380.02"/><polygon class="cls-1" points="542.73 251.51 457.71 251.14 457.43 310.62 518.67 310.88 518.63 320.12 457.38 319.86 457.1 379.57 542.11 379.93 542.07 389.17 447.3 388.77 448 241.86 542.77 242.27 542.73 251.51"/><polygon class="cls-2" points="317.32 241.36 364.61 386.81 413.59 241.77 317.32 241.36"/><polygon class="cls-3" points="317.32 241.36 304.81 241.31 364.42 425.2 426.11 241.83 413.59 241.77 364.61 386.81 317.32 241.36"/><polygon class="cls-4" points="317.6 183.25 366.28 38.27 413.87 183.66 317.6 183.25"/><polygon class="cls-5" points="414 183.84 426.51 183.89 366.52 0 305.21 183.37 317.73 183.43 366.34 38.45 414 183.84"/><path class="cls-6" d="M365.31,278.35c37.6.16,68.39-28.73,68.56-64.27s-30.34-64.76-67.94-64.92-68.38,28.73-68.55,64.33,30.34,64.7,67.93,64.86"/><path class="cls-7" d="M365.37,267.51c31.21.14,56.85-23.92,57-53.48s-25.26-53.9-56.48-54-56.85,23.92-57,53.54,25.2,53.84,56.48,54"/><path class="cls-8" d="M428.75,238.28a63.69,63.69,0,0,1-15.12,21.38A69.25,69.25,0,0,1,391,273.78l-44.27-42.3L384.47,196Z"/><path class="cls-9" d="M419.78,229.77c-5.58,17-19.79,30.31-37.77,35.44l-35.3-33.73L384.47,196Z"/><path class="cls-6" d="M365.5,239c14.64.06,26.64-11.2,26.71-25.06s-11.83-25.29-26.47-25.35-26.64,11.2-26.7,25.12S350.86,238.9,365.5,239"/><path class="cls-6" d="M365.55,229.9c9.38,0,17.05-7.16,17.09-16s-7.56-16.21-16.94-16.25-17.11,7.16-17.15,16.1,7.61,16.15,17,16.19"/><path class="cls-7" d="M365.55,228.89c8.76,0,16-6.74,16-15s-7.12-15.19-15.88-15.23-16,6.74-16.08,15.09,7.12,15.14,15.94,15.18"/></g></g></svg>