<svg xmlns="http://www.w3.org/2000/svg" width="12" height="12" viewBox="0 0 12 12">
    <defs>
        <style>
            .cls-1{fill:#707070}
        </style>
    </defs>
    <path id="phone" d="M5.413 8.193a10.065 10.065 0 0 0 4.393 4.393l1.467-1.467a.669.669 0 0 1 .68-.167 7.574 7.574 0 0 0 2.38.38A.667.667 0 0 1 15 12v2.333a.667.667 0 0 1-.667.667A11.333 11.333 0 0 1 3 3.667.667.667 0 0 1 3.667 3H6a.667.667 0 0 1 .667.667 7.574 7.574 0 0 0 .38 2.38.669.669 0 0 1-.167.68z" class="cls-1" transform="translate(-3 -3)"/>
</svg>
