<svg xmlns="http://www.w3.org/2000/svg" width="44" height="44" viewBox="0 0 44 44">
  <path id="play" d="M-12777-3529a21.854,21.854,0,0,1-15.556-6.444A21.855,21.855,0,0,1-12799-3551a21.855,21.855,0,0,1,6.444-15.557A21.857,21.857,0,0,1-12777-3573a21.856,21.856,0,0,1,15.557,6.443A21.855,21.855,0,0,1-12755-3551a21.854,21.854,0,0,1-6.443,15.555A21.853,21.853,0,0,1-12777-3529Zm-4-29.226a1,1,0,0,0-1,1v13.446a1,1,0,0,0,1,1,1,1,0,0,0,.519-.147l11.072-6.723a.992.992,0,0,0,.481-.855.992.992,0,0,0-.481-.855l-11.072-6.723A1,1,0,0,0-12781-3558.225Z" transform="translate(12799.001 3572.999)" fill="#fff" opacity="0.8"/>
</svg>
