<svg xmlns="http://www.w3.org/2000/svg" width="69.999" height="69.999" viewBox="0 0 69.999 69.999">
  <path id="play_boyuk" data-name="play boyuk" d="M-12764-3503a34.775,34.775,0,0,1-13.622-2.75,34.874,34.874,0,0,1-11.126-7.5,34.875,34.875,0,0,1-7.5-11.125A34.785,34.785,0,0,1-12799-3538a34.785,34.785,0,0,1,2.751-13.624,34.875,34.875,0,0,1,7.5-11.125,34.874,34.874,0,0,1,11.126-7.5A34.775,34.775,0,0,1-12764-3573a34.776,34.776,0,0,1,13.623,2.75,34.893,34.893,0,0,1,11.126,7.5,34.888,34.888,0,0,1,7.5,11.125A34.788,34.788,0,0,1-12729-3538a34.788,34.788,0,0,1-2.75,13.624,34.888,34.888,0,0,1-7.5,11.125,34.893,34.893,0,0,1-11.126,7.5A34.776,34.776,0,0,1-12764-3503Zm-6.953-46.951a1,1,0,0,0-1,1v23.49a1,1,0,0,0,1,1,1,1,0,0,0,.519-.147l19.344-11.744a.992.992,0,0,0,.482-.854.992.992,0,0,0-.482-.854l-19.344-11.747A.991.991,0,0,0-12770.953-3549.954Z" transform="translate(12799 3573.001)" fill="#fff" opacity="0.8"/>
</svg>
