<svg xmlns="http://www.w3.org/2000/svg" width="17" height="16" viewBox="0 0 17 16">
    <defs>
        <style>
            .cls-1{fill:none}.cls-2,.cls-3{stroke:none}.cls-3{fill:#f5b70d}
        </style>
    </defs>
    <g id="star" class="cls-1">
        <path d="M10.5 14.859L15.753 18l-1.394-5.92L19 8.1l-6.111-.522L10.5 2 8.111 7.575 2 8.1l4.633 3.98L5.247 18z" class="cls-2" transform="translate(-2 -2)"/>
        <path d="M6.758 15.931l3.229-1.93.513-.307.513.307 3.225 1.928-.852-3.62-.14-.592.462-.396 2.832-2.43-3.737-.32-.597-.051-.237-.551-1.469-3.43-1.47 3.43-.236.551-.597.051-3.74.32 2.827 2.43.46.396-.138.59-.848 3.624M15.753 18L10.5 14.859 5.247 18l1.386-5.92L2 8.097l6.111-.522L10.5 2l2.389 5.575L19 8.097l-4.641 3.983L15.753 18z" class="cls-3" transform="translate(-2 -2)"/>
    </g>
</svg>
