<svg xmlns="http://www.w3.org/2000/svg" width="26.198" height="27"><path d="M25.888 16.207a.621.621 0 0 0-.506-.052L21.647 17.4l-2.277-1.315 2.578-.908a.619.619 0 0 0 .332-.275l.025-.043a.621.621 0 0 0-.733-.9L17.837 15.2l-2.041-1.181v-1.038l2.04-1.181 3.735 1.24a.621.621 0 0 0 .733-.9l-.024-.043a.624.624 0 0 0-.332-.276l-2.578-.908L21.647 9.6l3.735 1.24a.621.621 0 0 0 .733-.9l-.025-.04a.622.622 0 0 0-.332-.275l-2.578-.908 1.281-.739a.9.9 0 1 0-.9-1.559l-1.281.739.5-2.687a.621.621 0 0 0-.072-.425L22.686 4a.621.621 0 0 0-1.146.185l-.794 3.86-2.276 1.314.5-2.687a.622.622 0 0 0-.073-.425l-.021-.047a.621.621 0 0 0-1.146.185l-.794 3.855-1.46.843-1.48-.733v-1.8l2.941-2.614a.621.621 0 0 0-.413-1.085h-.049a.622.622 0 0 0-.4.149l-2.079 1.779V4.15l2.941-2.614A.621.621 0 0 0 16.528.45h-.049a.622.622 0 0 0-.4.149l-2.083 1.78V.9a.9.9 0 1 0-1.8 0v1.479L10.124.6a.622.622 0 0 0-.4-.149h-.053a.621.621 0 0 0-.413 1.085l2.938 2.614v2.629L10.124 5a.622.622 0 0 0-.4-.149h-.053a.621.621 0 0 0-.413 1.085l2.938 2.614v1.8l-1.477.738-1.46-.843-.79-3.854a.621.621 0 0 0-1.146-.185l-.027.042a.619.619 0 0 0-.073.425l.5 2.687-2.271-1.315-.793-3.854a.621.621 0 0 0-1.146-.185l-.025.043a.619.619 0 0 0-.072.425l.5 2.687-1.278-.74a.9.9 0 1 0-.9 1.559l1.281.739-2.579.908a.619.619 0 0 0-.332.273l-.025.043a.621.621 0 0 0 .733.9L4.552 9.6l2.277 1.314-2.578.908a.619.619 0 0 0-.332.275l-.025.043a.621.621 0 0 0 .733.9l3.735-1.24 2.034 1.181v1.039L8.363 15.2l-3.735-1.24a.621.621 0 0 0-.733.9l.025.043a.624.624 0 0 0 .332.276l2.578.908L4.553 17.4.818 16.156a.621.621 0 0 0-.733.9l.025.043a.622.622 0 0 0 .332.275l2.578.908-1.281.739a.9.9 0 1 0 .9 1.559l1.281-.739-.5 2.687a.621.621 0 0 0 .072.425l.021.047a.621.621 0 0 0 1.146-.185l.794-3.855 2.277-1.314-.5 2.687a.622.622 0 0 0 .073.425l.025.043a.621.621 0 0 0 1.146-.185l.794-3.855 1.46-.843 1.476.738v1.8l-2.946 2.608a.621.621 0 0 0 .413 1.085h.049a.622.622 0 0 0 .4-.149l2.076-1.779v2.629l-2.938 2.614a.621.621 0 0 0 .413 1.085h.049a.622.622 0 0 0 .4-.149l2.076-1.779V26.1a.9.9 0 0 0 1.8 0v-1.479l2.079 1.779a.622.622 0 0 0 .4.149h.049a.621.621 0 0 0 .413-1.085l-2.941-2.614v-2.629L16.075 22a.622.622 0 0 0 .4.149h.049a.621.621 0 0 0 .413-1.085l-2.941-2.614v-1.8l1.477-.738 1.46.843.794 3.855a.621.621 0 0 0 1.146.185l.025-.043a.619.619 0 0 0 .073-.425l-.5-2.687 2.277 1.314.794 3.855a.621.621 0 0 0 1.146.185l.025-.043a.62.62 0 0 0 .073-.425l-.5-2.687 1.281.739a.9.9 0 1 0 .9-1.559l-1.281-.739 2.578-.908a.619.619 0 0 0 .332-.275l.025-.043a.62.62 0 0 0-.228-.848zM13.996 14.4l-.9.45-.9-.45v-1.8l.9-.45.9.45zm0 0" fill="#fff"/></svg>