<svg xmlns="http://www.w3.org/2000/svg" width="27" height="27"><path d="M22.753 8.466A8.848 8.848 0 0 0 5.667 5.644a6.032 6.032 0 0 0-2.018 11.562.4.4 0 0 0 .313-.727A5.241 5.241 0 0 1 7.4 6.606a.4.4 0 0 0 .206-.764 6.023 6.023 0 0 0-1.09-.188 8.056 8.056 0 0 1 15.445 2.817 5.414 5.414 0 0 0-.256.029.4.4 0 0 0 .114.783 3.881 3.881 0 0 1 .558-.04h.01a3.831 3.831 0 0 1-.01 7.661H6.029a5.3 5.3 0 0 1-.653-.04.4.4 0 0 0-.1.785 6.1 6.1 0 0 0 .751.047h5.149l-1.782 1.913a1.765 1.765 0 0 0 1.294 2.965h.521l-2.361 2.904a.933.933 0 0 0 1.311 1.314l5.867-4.748a1.686 1.686 0 0 0 .347-.387.4.4 0 1 0-.663-.431.9.9 0 0 1-.183.2l-5.866 4.751a.141.141 0 0 1-.089.032.142.142 0 0 1-.11-.232l2.885-3.55a.4.4 0 0 0-.307-.645h-1.352a.974.974 0 0 1-.714-1.635l2.286-2.453h3.217l-1.59 1.482a.4.4 0 0 0 .27.685h.83a.871.871 0 0 1 .679.342.4.4 0 0 0 .625-.485 1.66 1.66 0 0 0-1.14-.638l1.487-1.385h5.742a4.622 4.622 0 0 0 .375-9.229z" data-name="Path 191" fill="#fff"/></svg>