<svg xmlns="http://www.w3.org/2000/svg" id="storm" width="27" height="27"><defs><style>.cls-1{fill:#fff}</style></defs><path id="Path_191" d="M22.753 8.434A8.854 8.854 0 0 0 5.667 5.623a6 6 0 0 0-2.018 11.518.394.394 0 1 0 .313-.724A5.222 5.222 0 0 1 7.4 6.581a.394.394 0 1 0 .206-.761 6.044 6.044 0 0 0-1.09-.187 8.062 8.062 0 0 1 15.445 2.806 5.414 5.414 0 0 0-.256.029.394.394 0 1 0 .114.78 3.9 3.9 0 0 1 .558-.04h.01a3.816 3.816 0 1 1-.01 7.632H6.029a5.319 5.319 0 0 1-.653-.04.394.394 0 1 0-.1.782 6.12 6.12 0 0 0 .751.046c8.483-.01 8.519.016 10.606 0h5.742a4.6 4.6 0 0 0 .375-9.194z" class="cls-1" data-name="Path 191"/><path id="Path_196" d="M100.243 364.616a3 3 0 0 0-1.936.567 1.361 1.361 0 0 0 1.924 1.924 2.917 2.917 0 0 0 .567-1.934.546.546 0 0 0-.555-.557zm-.57 1.933a.569.569 0 0 1-.8 0 .561.561 0 0 1 0-.8 2.109 2.109 0 0 1 1.139-.329 2.037 2.037 0 0 1-.339 1.129z" class="cls-1" data-name="Path 196" transform="translate(-91.542 -345.379)"/><path id="Path_197" d="M339.4 351.467a.6.6 0 0 0-.61-.591 4 4 0 0 0-2.506.722 1.693 1.693 0 0 0 2.394 2.394 3.808 3.808 0 0 0 .722-2.525zm-1.28 1.967a.9.9 0 0 1-1.273-.005.889.889 0 0 1-.005-1.273 3.1 3.1 0 0 1 1.768-.489 2.991 2.991 0 0 1-.488 1.768z" class="cls-1" data-name="Path 197" transform="translate(-318.072 -332.362)"/><path id="Path_202" d="M339.4 351.467a.6.6 0 0 0-.61-.591 4 4 0 0 0-2.506.722 1.693 1.693 0 0 0 2.394 2.394 3.808 3.808 0 0 0 .722-2.525zm-1.28 1.967a.9.9 0 0 1-1.273-.005.889.889 0 0 1-.005-1.273 3.1 3.1 0 0 1 1.768-.489 2.991 2.991 0 0 1-.488 1.768z" class="cls-1" data-name="Path 202" transform="translate(-323.475 -332.362)"/><path id="Path_198" d="M29.493 427.114c-.533 0-2.339.065-3.179.905a2.085 2.085 0 0 0 2.949 2.949 4.853 4.853 0 0 0 .905-3.2.66.66 0 0 0-.675-.654zm-.787 3.3a1.291 1.291 0 0 1-1.826-.007 1.277 1.277 0 0 1-.007-1.826 4.216 4.216 0 0 1 2.508-.674 4.146 4.146 0 0 1-.676 2.504z" class="cls-1" data-name="Path 198" transform="translate(-23.157 -404.573)"/><path id="Path_199" d="M276.606 443.325a3.858 3.858 0 0 0-2.521.722 1.693 1.693 0 0 0 2.394 2.394 3.807 3.807 0 0 0 .722-2.525.6.6 0 0 0-.595-.591zm-.684 2.559a.888.888 0 0 1-.632.261.9.9 0 0 1-.647-1.54 3.092 3.092 0 0 1 1.768-.489 2.994 2.994 0 0 1-.489 1.768z" class="cls-1" data-name="Path 199" transform="translate(-259.153 -419.933)"/><path id="Path_201" d="M276.606 443.325a3.858 3.858 0 0 0-2.521.722 1.693 1.693 0 0 0 2.394 2.394 3.807 3.807 0 0 0 .722-2.525.6.6 0 0 0-.595-.591zm-.684 2.559a.888.888 0 0 1-.632.261.9.9 0 0 1-.647-1.54 3.092 3.092 0 0 1 1.768-.489 2.994 2.994 0 0 1-.489 1.768z" class="cls-1" data-name="Path 201" transform="translate(-264.557 -419.933)"/></svg>