<svg xmlns="http://www.w3.org/2000/svg" id="sun" width="27" height="27"><defs><style>.cls-1{fill:#fff}</style></defs><g id="Group_35" data-name="Group 35" transform="translate(6.704 6.704)"><g id="Group_34" data-name="Group 34"><path id="Path_1" d="M86.789 77.2a6.819 6.819 0 0 0-4.789-2 6.671 6.671 0 0 0-4.793 2A6.8 6.8 0 0 0 82 88.792a6.671 6.671 0 0 0 4.793-2 6.819 6.819 0 0 0 2-4.793 6.671 6.671 0 0 0-2.004-4.799zM85.5 85.5a5.009 5.009 0 1 1 1.432-3.5 4.947 4.947 0 0 1-1.432 3.5z" class="cls-1" data-name="Path 1" transform="translate(-75.2 -75.2)"/></g></g><g id="Group_37" data-name="Group 37" transform="translate(22.386 12.57)"><g id="Group_36" data-name="Group 36"><path id="Path_2" d="M254.484 140.8h-2.754a.93.93 0 0 0 0 1.86h2.754a.93.93 0 1 0 0-1.86z" class="cls-1" data-name="Path 2" transform="translate(-250.8 -140.8)"/></g></g><g id="Group_39" data-name="Group 39" transform="translate(12.57 22.386)"><g id="Group_38" data-name="Group 38"><path id="Path_3" d="M141.73 250.8a.947.947 0 0 0-.93.93v2.754a.93.93 0 1 0 1.86 0v-2.754a.947.947 0 0 0-.93-.93z" class="cls-1" data-name="Path 3" transform="translate(-140.8 -250.8)"/></g></g><g id="Group_41" data-name="Group 41" transform="translate(19.507 19.507)"><g id="Group_40" data-name="Group 40"><path id="Path_4" d="M222.123 220.836l-1.967-1.967a.911.911 0 0 0-1.288 1.288l1.967 1.967a.911.911 0 0 0 1.288-1.288z" class="cls-1" data-name="Path 4" transform="translate(-218.6 -218.6)"/></g></g><g id="Group_43" data-name="Group 43" transform="translate(12.57)"><g id="Group_42" data-name="Group 42"><path id="Path_5" d="M141.73 0a.947.947 0 0 0-.93.93v2.754a.93.93 0 1 0 1.86 0V.93a.947.947 0 0 0-.93-.93z" class="cls-1" data-name="Path 5" transform="translate(-140.8)"/></g></g><g id="Group_45" data-name="Group 45" transform="translate(19.542 3.702)"><g id="Group_44" data-name="Group 44"><path id="Path_6" d="M222.523 41.668a.907.907 0 0 0-1.288 0l-1.967 1.967a.911.911 0 1 0 1.288 1.288l1.967-1.967a.907.907 0 0 0 0-1.288z" class="cls-1" data-name="Path 6" transform="translate(-219 -41.4)"/></g></g><g id="Group_47" data-name="Group 47" transform="translate(0 12.57)"><g id="Group_46" data-name="Group 46"><path id="Path_7" d="M3.684 140.8H.93a.947.947 0 0 0-.93.93.923.923 0 0 0 .93.93h2.754a.93.93 0 1 0 0-1.86z" class="cls-1" data-name="Path 7" transform="translate(0 -140.8)"/></g></g><g id="Group_49" data-name="Group 49" transform="translate(3.666 19.507)"><g id="Group_48" data-name="Group 48"><path id="Path_8" d="M44.523 218.868a.906.906 0 0 0-1.288 0l-1.967 1.967a.911.911 0 1 0 1.288 1.288l1.967-1.967a.907.907 0 0 0 0-1.288z" class="cls-1" data-name="Path 8" transform="translate(-41 -218.6)"/></g></g><g id="Group_51" data-name="Group 51" transform="translate(3.666 3.702)"><g id="Group_50" data-name="Group 50"><path id="Path_9" d="M44.523 43.636l-1.967-1.967a.911.911 0 1 0-1.288 1.288l1.967 1.967a.911.911 0 0 0 1.288-1.288z" class="cls-1" data-name="Path 9" transform="translate(-41 -41.4)"/></g></g></svg>