<svg xmlns="http://www.w3.org/2000/svg" width="26.198" height="27" viewBox="0 0 26.198 27">
    <defs>
        <style>
            .cls-1{fill:#fff}
        </style>
    </defs>
    <path id="snowflake" d="M25.892 16.207a.621.621 0 0 0-.506-.052L21.651 17.4l-2.277-1.315 2.578-.908a.619.619 0 0 0 .332-.275l.025-.043a.621.621 0 0 0-.733-.9L17.841 15.2 15.8 14.019v-1.038l2.04-1.181 3.735 1.24a.621.621 0 0 0 .733-.9l-.024-.043a.624.624 0 0 0-.332-.276l-2.578-.908L21.651 9.6l3.735 1.24a.621.621 0 0 0 .733-.9l-.025-.04a.622.622 0 0 0-.332-.275l-2.578-.908 1.281-.739a.9.9 0 1 0-.9-1.559l-1.281.739.5-2.687a.621.621 0 0 0-.072-.425L22.69 4a.621.621 0 0 0-1.146.185l-.794 3.86-2.276 1.314.5-2.687a.622.622 0 0 0-.073-.425L18.88 6.2a.621.621 0 0 0-1.146.185l-.794 3.855-1.46.843L14 10.35v-1.8l2.941-2.614a.621.621 0 0 0-.413-1.085h-.049a.622.622 0 0 0-.4.149L14 6.779V4.15l2.941-2.614A.621.621 0 0 0 16.532.45h-.049a.622.622 0 0 0-.4.149L14 2.379V.9a.9.9 0 1 0-1.8 0v1.479L10.128.6a.622.622 0 0 0-.4-.149h-.053a.621.621 0 0 0-.413 1.085L12.2 4.15v2.629L10.128 5a.622.622 0 0 0-.4-.149h-.053a.621.621 0 0 0-.413 1.085L12.2 8.55v1.8l-1.477.738-1.46-.843-.79-3.854a.621.621 0 0 0-1.146-.185l-.027.042a.619.619 0 0 0-.073.425l.5 2.687-2.271-1.315-.793-3.854a.621.621 0 0 0-1.146-.185l-.025.043a.619.619 0 0 0-.072.425l.5 2.687-1.278-.74a.9.9 0 1 0-.9 1.559l1.281.739-2.579.908a.619.619 0 0 0-.332.273l-.025.043a.621.621 0 0 0 .733.9L4.556 9.6l2.277 1.314-2.578.908a.619.619 0 0 0-.332.275l-.025.043a.621.621 0 0 0 .733.9l3.735-1.24 2.034 1.181v1.039L8.367 15.2l-3.735-1.24a.621.621 0 0 0-.733.9l.025.043a.624.624 0 0 0 .332.276l2.578.908L4.557 17.4.822 16.156a.621.621 0 0 0-.733.9l.025.043a.622.622 0 0 0 .332.275l2.578.908-1.281.739a.9.9 0 1 0 .9 1.559l1.281-.739-.5 2.687a.621.621 0 0 0 .072.425l.021.047a.621.621 0 0 0 1.146-.185l.794-3.855 2.277-1.314-.5 2.687a.622.622 0 0 0 .073.425l.025.043a.621.621 0 0 0 1.146-.185l.794-3.855 1.46-.843 1.476.738v1.8l-2.946 2.608a.621.621 0 0 0 .413 1.085h.049a.622.622 0 0 0 .4-.149l2.076-1.779v2.629l-2.938 2.614a.621.621 0 0 0 .413 1.085h.049a.622.622 0 0 0 .4-.149l2.076-1.779V26.1a.9.9 0 0 0 1.8 0v-1.479l2.079 1.779a.622.622 0 0 0 .4.149h.049a.621.621 0 0 0 .413-1.085L14 22.85v-2.629L16.079 22a.622.622 0 0 0 .4.149h.049a.621.621 0 0 0 .413-1.085L14 18.45v-1.8l1.477-.738 1.46.843.794 3.855a.621.621 0 0 0 1.146.185l.025-.043a.619.619 0 0 0 .073-.425l-.5-2.687 2.277 1.314.794 3.855a.621.621 0 0 0 1.146.185l.025-.043a.62.62 0 0 0 .073-.425l-.5-2.687 1.281.739a.9.9 0 1 0 .9-1.559l-1.281-.739 2.578-.908a.619.619 0 0 0 .332-.275l.025-.043a.62.62 0 0 0-.228-.848zM14 14.4l-.9.45-.9-.45v-1.8l.9-.45.9.45zm0 0" class="cls-1" transform="translate(-.004)"/>
</svg>
