<svg xmlns="http://www.w3.org/2000/svg" id="storm" width="27" height="17.633" viewBox="0 0 27 17.633">
    <defs>
        <style>
            .cls-1{fill:#fff}
        </style>
    </defs>
    <path id="Path_191" d="M22.753 8.434A8.854 8.854 0 0 0 5.667 5.623a6 6 0 0 0-2.018 11.518.394.394 0 1 0 .313-.724A5.222 5.222 0 0 1 7.4 6.581a.394.394 0 1 0 .206-.761 6.044 6.044 0 0 0-1.09-.187 8.062 8.062 0 0 1 15.445 2.806 5.414 5.414 0 0 0-.256.029.394.394 0 1 0 .114.78 3.9 3.9 0 0 1 .558-.04h.01a3.816 3.816 0 1 1-.01 7.632H6.029a5.319 5.319 0 0 1-.653-.04.394.394 0 1 0-.1.782 6.12 6.12 0 0 0 .751.046c8.483-.01 8.519.016 10.606 0h5.742a4.6 4.6 0 0 0 .375-9.194z" class="cls-1" data-name="Path 191"/>
</svg>
